<?xml version="1.0" encoding="utf-8"?>
<!-- Generator: Adobe Illustrator 26.5.0, SVG Export Plug-In . SVG Version: 6.00 Build 0)  -->
<svg version="1.1" id="Camada_1" xmlns="http://www.w3.org/2000/svg" xmlns:xlink="http://www.w3.org/1999/xlink" x="0px" y="0px"
	 viewBox="0 0 150 150" style="enable-background:new 0 0 150 150;" xml:space="preserve">
<style type="text/css">
	.st0{fill:#13602C;stroke:#020203;stroke-miterlimit:10;}
	.st1{opacity:0.89;fill:#B7880F;enable-background:new    ;}
	.st2{fill:#8C5C14;}
	.st3{fill:#038C38;}
	.st4{fill:#F18426;stroke:#020203;stroke-width:6;stroke-miterlimit:10;}
	.st5{fill:none;stroke:#020203;stroke-width:3;stroke-miterlimit:10;}
	.st6{fill:none;stroke:#038C38;stroke-miterlimit:10;}
	.st7{fill:none;}
	.st8{fill:#020203;stroke:#020203;stroke-miterlimit:10;}
</style>
<g id="Camada_1_00000026877084744999976600000010276492629791344810_">
	<path class="st0" d="M77.1,91.4"/>
	<path class="st1" d="M56.2,146.2c0,0-6.1,0.3-34.8-19.1C4.8,115.7,5.6,98.1,5.6,98.1L61.7,38l55.6,12.9l16.5,52.3L56.2,146.2z"/>
	<path class="st2" d="M93.2,119.4c-0.4-0.6-5.5-7.4-2.8-15.8c2.1-6.1,7.4-10.5,13.9-11.5c0,0,4.4-1.3,5.3-2.5c1.9-2.8,1-17,2.3-13.9
		c1.3,3.4,0.9,0,0.9,0V87l11.8-2.4c0,0,4.5,5.8,3.3,5.3c-1.8-0.8-7.3,0-7.3,0s-2.4,2-1.9,2.8c1.4,2.4,12,5.8,12,5.8
		s0.6,8.9-0.4,11.4c-1.3,3-6.1,7.5-8.6,9.8c-2.6,2.4-8,8.9-16.3,7.3C95.5,124.5,93.2,119.4,93.2,119.4z"/>
	<path class="st3" d="M75.5,2C34.9,2,2,34.9,2,75.5C2,83.4,3.3,91,5.6,98.1c6.3-6.8,17.6-13,25.7-18.3c12.9-8.3,25-18.4,39.6-21.2
		c0.9-0.1,1.5,0,2.5-0.1c-0.3-1.3-1-2.9-0.3-3.9c2.9-3.8,8.3-4,12.8-2.8l0,0l5.8-0.5c8.3-0.9,7.4,8.3,9.3,13.8
		c9.3,2.8,10.1,12.9,9.3,21.2c4.6,2.8,9.3-0.9,13.8,1.9c5.5,4.6,5.5,13.1,3.6,19.4c-2.4,8.4-11,15.6-20.3,17.5
		c-5.5,0.9-11-1.9-14.8-6.5c-10.1-1.9-20.3-1.9-29.5,0.9c-1.8,3.6-5.5,5.6-8,8.6c0.3,3.6,0.4,7.1,0.6,10.8c0.3,2.4,0.4,4.9,0.6,7.3
		c6,1.6,12.4,2.5,19,2.5c40.6,0,73.5-32.9,73.5-73.5C148.8,34.9,116,2,75.5,2z"/>
	<path class="st4" d="M72.6,74"/>
	<path class="st5" d="M72.7,72.7"/>
	<g id="XMLID_00000056396779621390054180000009601099968995512219_">
		<g>
			<path class="st6" d="M87.7,58c0,0-0.5,14.4-5.4,15c-1.9,0.3-3.9-1.6-4.5-3.1c-3-7-6.5-14.6-7.1-16.4"/>
		</g>
	</g>
	<line class="st7" x1="89.7" y1="63" x2="102.3" y2="67"/>
	<path class="st8" d="M117.4,89.4c0,0,5.8-1.3,7.3-0.4c1,0.6,1.8,3,2.3,4.1c2,4.9,0.8,4.1,0.8,4.1s-8.8-2.1-10.4-4.4
		c-0.5-0.9,0-3.9,0-3.9"/>
</g>
</svg>
