<?xml version="1.0" encoding="utf-8"?>
<!-- Generator: Adobe Illustrator 26.5.0, SVG Export Plug-In . SVG Version: 6.00 Build 0)  -->
<svg version="1.1" xmlns="http://www.w3.org/2000/svg" xmlns:xlink="http://www.w3.org/1999/xlink" x="0px" y="0px"
	 viewBox="0 0 250 150" style="enable-background:new 0 0 250 150;" xml:space="preserve">
<style type="text/css">
	.st0{fill:#0D5F1E;stroke:#000000;stroke-miterlimit:10;}
	.st1{opacity:0.32;fill:#F1A139;}
	.st2{fill:#8B5B13;}
	.st3{fill:#D8D8D8;}
	.st4{fill:#F18424;stroke:#000000;stroke-width:6;stroke-miterlimit:10;}
	.st5{fill:none;stroke:#000000;stroke-width:3;stroke-miterlimit:10;}
	.st6{fill:none;stroke:#D8D8D8;stroke-miterlimit:10;}
	.st7{fill:none;}
	.st8{stroke:#000000;stroke-miterlimit:10;}
	.st9{font-family:'InkFree';}
	.st10{font-size:48.8826px;}
	.st11{font-size:47.2532px;}
</style>
<g id="Camada_1">
	<path class="st0" d="M67.5,93.4"/>
	<path class="st1" d="M50.8,137.2c0,0-4.9,0.2-27.8-15.3c-13.3-9.1-12.6-23.1-12.6-23.1l44.8-48l44.4,10.3l13.2,41.8L50.8,137.2z"/>
	<path class="st2" d="M80.4,115.8c-0.3-0.5-4.4-5.9-2.2-12.6c1.7-4.9,5.9-8.4,11.1-9.2c0,0,3.5-1,4.2-2c1.5-2.2,0.8-13.6,1.8-11.1
		c1,2.7,0.7,0,0.7,0v9l9.4-1.9c0,0,3.6,4.6,2.6,4.2c-1.4-0.6-5.8,0-5.8,0s-1.9,1.6-1.5,2.2c1.1,1.9,9.6,4.6,9.6,4.6s0.5,7.1-0.3,9.1
		c-1,2.4-4.9,6-6.9,7.8c-2.1,1.9-6.4,7.1-13,5.8C82.2,119.9,80.4,115.8,80.4,115.8z"/>
	<path class="st3" d="M66.2,22C33.8,22,7.5,48.3,7.5,80.7c0,6.3,1,12.4,2.9,18.1c5-5.4,14.1-10.4,20.5-14.6
		c10.3-6.6,20-14.7,31.6-16.9c0.7-0.1,1.2,0,2-0.1c-0.2-1-0.8-2.3-0.2-3.1c2.3-3,6.6-3.2,10.2-2.2l0,0l4.6-0.4
		c6.6-0.7,5.9,6.6,7.4,11c7.4,2.2,8.1,10.3,7.4,16.9c3.7,2.2,7.4-0.7,11,1.5c4.4,3.7,4.4,10.5,2.9,15.5c-1.9,6.7-8.8,12.5-16.2,14
		c-4.4,0.7-8.8-1.5-11.8-5.2c-8.1-1.5-16.2-1.5-23.6,0.7c-1.4,2.9-4.4,4.5-6.4,6.9c0.2,2.9,0.3,5.7,0.5,8.6c0.2,1.9,0.3,3.9,0.5,5.8
		c4.8,1.3,9.9,2,15.2,2c32.4,0,58.7-26.3,58.7-58.7C124.8,48.3,98.6,22,66.2,22z"/>
	<path class="st4" d="M63.9,79.5"/>
	<path class="st5" d="M64,78.5"/>
	<g id="XMLID_00000056396779621390054180000009601099968995512219_">
		<g>
			<path class="st6" d="M76,66.7c0,0-0.4,11.5-4.3,12c-1.5,0.2-3.1-1.3-3.6-2.5c-2.4-5.6-5.2-11.7-5.7-13.1"/>
		</g>
	</g>
	<line class="st7" x1="77.6" y1="70.7" x2="87.6" y2="73.9"/>
	<path class="st8" d="M99.7,91.8c0,0,4.6-1,5.8-0.3c0.8,0.5,1.8,3.3,1.8,3.3l0.6,3.3c0,0-7-1.7-8.3-3.5c-0.4-0.7,0-3.1,0-3.1"/>
	<text transform="matrix(1 0 0 1 132.0702 74.9374)" class="st9 st10">Boxer</text>
	<text transform="matrix(1.0892 0 0 1 136.8916 114.7637)" class="st9 st11">Pets</text>
</g>
<g id="Camada_2">
</g>
</svg>
