<?xml version="1.0" encoding="utf-8"?>
<!-- Generator: Adobe Illustrator 26.5.0, SVG Export Plug-In . SVG Version: 6.00 Build 0)  -->
<svg version="1.1" id="Camada_1" xmlns="http://www.w3.org/2000/svg" xmlns:xlink="http://www.w3.org/1999/xlink" x="0px" y="0px"
	 viewBox="0 0 841.89 595.28" style="enable-background:new 0 0 841.89 595.28;" xml:space="preserve">
<style type="text/css">
	.st0{fill:none;}
	.st1{fill:none;stroke:#000000;stroke-width:3;stroke-miterlimit:10;}
	.st2{stroke:#000000;stroke-miterlimit:10;}
	.st3{fill:none;stroke:#000000;stroke-miterlimit:10;}
	.st4{fill:#FFFFFF;stroke:#000000;stroke-miterlimit:10;}
	.st5{fill:none;stroke:#B2B2B2;stroke-width:0.5;stroke-miterlimit:10;}
	.st6{fill:#B2B2B2;}
	.st7{fill:#FEE7CE;stroke:#000000;stroke-width:0.25;stroke-miterlimit:10;}
	.st8{fill:none;stroke:#000000;stroke-width:0.25;stroke-miterlimit:10;}
	.st9{fill:none;stroke:#B2B2B2;stroke-miterlimit:10;}
	.st10{stroke:#000000;stroke-width:2;stroke-miterlimit:10;}
	.st11{fill:#FFFFFF;stroke:#EEEDEE;stroke-width:2;stroke-miterlimit:10;}
	.st12{fill:none;stroke:#000000;stroke-width:2;stroke-miterlimit:10;}
	.st13{fill:none;stroke:#EEEDEB;stroke-width:2;stroke-miterlimit:10;}
</style>
<path class="st0" d="M580.53,376.35c0.97-0.32,1.94-0.65,2.92-0.97"/>
<g>
	<g>
		<path d="M462.76,380.39c3.22,0,3.22-5,0-5C459.54,375.39,459.53,380.39,462.76,380.39L462.76,380.39z"/>
	</g>
</g>
<g>
	<g>
		<path d="M499.1,374.34c3.22,0,3.22-5,0-5C495.88,369.34,495.88,374.34,499.1,374.34L499.1,374.34z"/>
	</g>
</g>
<g>
	<g>
		<path d="M466.43,421.68c3.22,0,3.22-5,0-5C463.21,416.68,463.2,421.68,466.43,421.68L466.43,421.68z"/>
	</g>
</g>
<g>
	<g>
		<path d="M515.47,413.33c3.22,0,3.22-5,0-5C512.25,408.33,512.24,413.33,515.47,413.33L515.47,413.33z"/>
	</g>
</g>
<path class="st1" d="M512.02,212.38c35.7,42.2,44.66,78.28,45.99,103.92c1.61,31.04-7.98,46.34,2.14,69.28
	c11.3,25.63,39.6,43.54,67.13,40.07c4.25-0.54,24.18-3.05,38.26-20.41c32.99-40.66,12.44-136.29-27.18-194.1
	c-25.2-36.76-56.34-55.65-77.63-65.42"/>
<path class="st2" d="M497.62,308.61c-10.51,0.16-17.9-6.51-19.15-12.73c-1.46-7.23,4.82-16.7,16.18-18.91
	c12.17-2.36,25.16,4.59,25.97,13.25C521.43,298.92,509.92,308.42,497.62,308.61z"/>
<path class="st3" d="M494.49,275.77c12.22-0.39,20.67,4.92,25.2,7.77c3.9,2.45,14.86,9.34,13.57,15.53
	c-0.7,3.38-4.75,5.04-11.63,7.76c-5.42,2.14-15.18,5.88-29.08,5.81c-9.08-0.04-15.16-1.69-23.26-3.89
	c-9.57-2.6-11.08-4.3-11.63-5.82c-1.93-5.36,6.52-12.75,9.69-15.52C470.96,284.25,480.12,276.24,494.49,275.77z"/>
<ellipse class="st4" cx="503.44" cy="286.14" rx="6.02" ry="4.02"/>
<ellipse class="st4" cx="514.48" cy="291.2" rx="3.01" ry="2.97"/>
<path class="st3" d="M500.88,239.28c2.18-0.66,16.4-4.74,27.97,2.92c3.6,2.38,5.96,5.25,7.47,7.6"/>
<path class="st5" d="M176.28,416.39c18.3-9.03,85.22-40.01,148.88-25.55c18.16,4.12,32.02,11.03,42.31,17.9"/>
<g>
	<g>
		<path d="M484.81,400.56c3.22,0,3.22-5,0-5C481.59,395.56,481.59,400.56,484.81,400.56L484.81,400.56z"/>
	</g>
</g>
<g>
	<g>
		<path d="M520.7,392.71c3.22,0,3.22-5,0-5C517.48,387.71,517.48,392.71,520.7,392.71L520.7,392.71z"/>
	</g>
</g>
<g>
	<path class="st0" d="M144.31,313.61c0,18.12,1.76,35.82,5.09,52.96V260.65C146.07,277.79,144.31,295.49,144.31,313.61z"/>
	<path class="st0" d="M425.24,37.03v549.88h-47.29c14.01,2.19,28.37,3.33,42.99,3.33c152.78,0,276.63-123.85,276.63-276.63
		C697.58,162.27,576.04,39.33,425.24,37.03z"/>
	<path d="M425.24,37.03c-1.43-0.02-2.86-0.05-4.3-0.05c-134.66,0-246.83,96.23-271.55,223.67v105.93
		c22.03,113.6,113.55,202.39,228.55,220.34h47.29V37.03z"/>
</g>
<path class="st3" d="M239.17,231.08"/>
<g>
	<g>
		<path class="st6" d="M411.54,218.26c-8.32-1.87-17.05-1.87-25.48-0.88c-3.43,0.4-6.86,0.95-10.21,1.83
			c-1.15,0.3-2.26,0.7-3.38,1.08c0.35-0.12,0.18-0.01-0.09,0c-0.23,0.01-0.47,0.03-0.7,0.04c-0.81,0.02-1.63-0.01-2.41-0.21
			c-0.64-0.16-1.12-0.52-1.72-0.76c-0.64-0.25-1.37-0.37-2.03-0.58c-0.3-0.09-0.59-0.2-0.89-0.29c-0.28-0.09-0.62-0.42-0.18-0.05
			c-0.01-0.01-0.03-0.02-0.05-0.03c-0.2-0.17,0.21,0.2,0.09,0.08c-0.36-0.38-0.8-0.71-1.18-1.06c-1.77-1.67-3.5-3.4-5.22-5.11
			c-6.84-6.82-13.6-13.72-20.36-20.62c-10.55-10.78-21.05-21.61-31.54-32.46c-13.48-13.94-26.91-27.91-40.33-41.91
			c-1.83-1.91-3.65-3.81-5.48-5.72c-0.51-0.53-1.63-0.48-1.96,0.25c-6.79,15.19-11.7,31.2-14.47,47.62
			c-3.7,21.92-3.6,44.39,0.27,66.28c1.65,9.36,4,18.58,6.99,27.6c0.5,1.52,2.92,0.87,2.41-0.66c-5.9-17.76-9.24-36.34-9.81-55.05
			c-0.63-20.84,2.18-41.72,8.23-61.67c2.36-7.79,5.21-15.43,8.53-22.86c-0.65,0.08-1.31,0.17-1.96,0.25
			c13.81,14.43,27.64,28.83,41.51,43.19c10.9,11.29,21.82,22.56,32.78,33.78c7.28,7.45,14.56,14.9,21.93,22.27
			c1.96,1.96,3.92,3.92,5.92,5.85c1.26,1.22,2.17,2.12,3.87,2.67c0.73,0.24,1.48,0.4,2.21,0.64c-0.42-0.14-0.06,0.03,0.27,0.21
			c0.42,0.22,0.88,0.39,1.33,0.52c1.32,0.37,2.83,0.46,4.2,0.28c0.99-0.13,1.94-0.6,2.9-0.88c1.42-0.41,2.86-0.74,4.3-1.03
			c8.05-1.61,16.48-2.07,24.65-1.23c2.15,0.22,4.27,0.57,6.38,1.04C412.44,221.03,413.11,218.62,411.54,218.26L411.54,218.26z"/>
	</g>
</g>
<path class="st3" d="M218.35,233.95"/>
<g>
	<path class="st2" d="M336.64,274.22c-5.69,0.01-11.54,11.23-10.82,21c0.61,8.28,6.14,18.1,11.51,18.03
		c5.38-0.06,10.2-10.04,10.5-18.17C348.19,285.42,342.34,274.2,336.64,274.22z"/>
	<path class="st4" d="M363.57,288.67c0,0-3.96-4.65-8.42-7.81c-17.68-12.57-55.52-8.55-58.3,2.7c-2.11,8.52,16.22,19.75,24.04,23.74
		c21.44,10.94,48.93,10.9,52.59,2.4C376.18,303.47,366.35,291.94,363.57,288.67z M337.39,311.94c-5.14,0.18-10.24-9.48-10.62-17.77
		c-0.43-9.33,4.98-20.02,10.21-19.96c5.22,0.06,10.14,10.83,9.87,19.96C346.6,301.97,342.48,311.76,337.39,311.94z"/>
</g>
<path class="st7" d="M269.21,238.44c1.06,4.27,5.88,6.39,9.71,4.22c4.61-2.61,9.52-5.2,14.72-7.72c11.57-5.6,22.65-9.9,32.85-13.22
	c4.45-1.45,6.04-6.91,3.08-10.54c-7.37-9.02-15.17-18.21-23.39-27.5c-9.44-10.67-18.8-20.76-28.02-30.29
	c-3.76-3.89-10.33-1.88-11.33,3.44c-1.93,10.24-3.35,22.35-3.3,35.96C263.58,210.75,266.17,226.24,269.21,238.44z"/>
<path class="st8" d="M289.63,214.87"/>
<ellipse class="st4" cx="344.84" cy="285.14" rx="4.02" ry="3.01"/>
<path class="st3" d="M411.09,296.18"/>
<path class="st4" d="M242.58,414.19"/>
<g>
	<path class="st6" d="M224.33,340.29c49.07-0.56,110.2,9.76,146.8,44.84c4,3.95,7.66,8.22,10.89,12.81
		c1.06,1.54,2.06,3.11,3.02,4.71c-4.35-6.04-9.33-11.59-14.91-16.44C331.32,352.84,273.95,343.83,224.33,340.29L224.33,340.29z"/>
</g>
<path class="st9" d="M271.87,464.49c7.93-12.2,38.22-55.34,94.57-64.66c16.07-2.66,30.69-1.97,42.64-0.21"/>
<g>
	<path class="st6" d="M238.79,417.91c37.1-18.11,81.38-26.68,121.5-13.94c13.25,4.21,25.73,11.02,36.3,20.01
		c-11.27-8.03-23.83-14.01-36.99-17.77C319.61,394.81,276.83,403.12,238.79,417.91L238.79,417.91z"/>
</g>
<g>
	<g>
		<path class="st6" d="M383.96,406.18c3.22,0,3.22-5,0-5C380.75,401.18,380.74,406.18,383.96,406.18L383.96,406.18z"/>
	</g>
</g>
<g>
	<g>
		<path class="st6" d="M405.48,400.28c3.22,0,3.22-5,0-5C402.26,395.28,402.25,400.28,405.48,400.28L405.48,400.28z"/>
	</g>
</g>
<g>
	<g>
		<path class="st6" d="M396.67,426.49c3.22,0,3.22-5,0-5C393.45,421.49,393.45,426.49,396.67,426.49L396.67,426.49z"/>
	</g>
</g>
<g>
	<g>
		<path class="st6" d="M401.29,416.19c3.22,0,3.22-5,0-5C398.07,411.19,398.07,416.19,401.29,416.19L401.29,416.19z"/>
	</g>
</g>
<path class="st10" d="M451.57,352.09c-4.53-0.98-20.11-4.26-27.42-4.32c-1.52-0.01-2.74,1.24-2.73,2.76l0.23,32.27
	c0.01,1.79,1.73,3.11,3.46,2.64c20.13-5.54,29.16-24.12,28.62-30.9C453.62,353.33,452.75,352.34,451.57,352.09z"/>
<path class="st11" d="M422.46,347.36l-0.64,38.18c-13.76-3.81-27.66-14.86-41.7-32.73C384.37,347.37,403.65,347.45,422.46,347.36z"
	/>
<path class="st12" d="M422.26,386.23c9.51,78.39,43.18,85.44,87.2,61.94"/>
<path class="st13" d="M423.25,385.79c-9.59,79.06-43.55,86.16-87.94,62.46"/>
<g>
	<path class="st6" d="M223.95,398.09c48.59-25.87,109.93-30.11,157.75-0.28c6.67,4.14,13.05,8.74,18.97,13.87
		c-6.2-4.77-12.66-9.2-19.47-13.03C332.65,370.3,273.57,374.74,223.95,398.09L223.95,398.09z"/>
</g>
</svg>
